<svg width="390" height="397" viewBox="0 0 390 397" fill="none" xmlns="http://www.w3.org/2000/svg">
<rect width="390" height="397" fill="#E5E5E5"/>
<rect x="-154" y="-161" width="1278" height="718" fill="black"/>
<line x1="196.438" y1="333.254" x2="196.438" y2="371.626" stroke="#222222" stroke-width="3"/>
<line x1="121.17" y1="147.295" x2="121.17" y2="257.984" stroke="#222222" stroke-width="3"/>
<line x1="121.01" y1="220.068" x2="121.01" y2="258.577" stroke="white" stroke-width="3"/>
<line x1="298.27" y1="73.5039" x2="298.27" y2="219.614" stroke="#222222" stroke-width="3"/>
<line x1="290.889" y1="182.715" x2="290.889" y2="257.983" stroke="#222222" stroke-width="3"/>
<path d="M224.068 110.047C223.873 109.852 223.557 109.852 223.361 110.047L220.179 113.229C219.984 113.424 219.984 113.741 220.179 113.936C220.375 114.131 220.691 114.131 220.886 113.936L223.715 111.107L226.543 113.936C226.739 114.131 227.055 114.131 227.25 113.936C227.446 113.741 227.446 113.424 227.25 113.229L224.068 110.047ZM223.215 110.4L223.215 257.986L224.215 257.986L224.215 110.4L223.215 110.4Z" fill="white"/>
<path d="M213.115 149.918C212.92 149.723 212.603 149.723 212.408 149.918L209.226 153.1C209.031 153.295 209.031 153.612 209.226 153.807C209.421 154.002 209.738 154.002 209.933 153.807L212.762 150.979L215.59 153.807C215.785 154.002 216.102 154.002 216.297 153.807C216.493 153.612 216.493 153.295 216.297 153.1L213.115 149.918ZM212.262 150.271L212.262 185.17L213.262 185.17L213.262 150.271L212.262 150.271Z" fill="white"/>
<line x1="113.789" y1="147.295" x2="113.789" y2="257.984" stroke="#222222" stroke-width="3"/>
<path d="M238.83 71.6738C238.635 71.4785 238.318 71.4785 238.123 71.6738L234.941 74.8558C234.746 75.051 234.746 75.3676 234.941 75.5629C235.136 75.7581 235.453 75.7581 235.648 75.5629L238.477 72.7345L241.305 75.5629C241.5 75.7581 241.817 75.7581 242.012 75.5629C242.207 75.3676 242.207 75.051 242.012 74.8558L238.83 71.6738ZM237.977 72.0273L237.977 184.192L238.977 184.192L238.977 72.0273L237.977 72.0273Z" fill="white"/>
<line x1="143.305" y1="257.984" x2="143.305" y2="333.253" stroke="#222222" stroke-width="3"/>
<line x1="128.549" y1="219.611" x2="128.549" y2="296.356" stroke="#222222" stroke-width="3"/>
<line x1="128.23" y1="220.068" x2="128.23" y2="258.577" stroke="white" stroke-width="3"/>
<line x1="113.789" y1="183.967" x2="113.789" y2="258.577" stroke="white" stroke-width="3"/>
<line x1="158.064" y1="257.984" x2="158.064" y2="333.253" stroke="#222222" stroke-width="3"/>
<line x1="217.098" y1="257.984" x2="217.098" y2="371.625" stroke="#222222" stroke-width="3"/>
<line x1="209.723" y1="257.984" x2="209.723" y2="296.357" stroke="#222222" stroke-width="3"/>
<line x1="183.152" y1="257.984" x2="183.152" y2="333.253" stroke="#222222" stroke-width="3"/>
<path d="M272.273 187.41C274.217 187.41 275.633 185.814 275.633 183.138C275.633 180.462 274.217 178.866 272.273 178.866C270.329 178.866 268.925 180.462 268.925 183.138C268.925 185.814 270.329 187.41 272.273 187.41ZM272.273 186.618C270.809 186.618 269.801 185.382 269.801 183.138C269.801 180.894 270.809 179.658 272.273 179.658C273.737 179.658 274.745 180.894 274.745 183.138C274.745 185.382 273.737 186.618 272.273 186.618ZM277.389 187.398C277.737 187.398 278.037 187.11 278.037 186.738C278.037 186.366 277.737 186.09 277.389 186.09C277.041 186.09 276.753 186.366 276.753 186.738C276.753 187.11 277.041 187.398 277.389 187.398ZM282.503 187.41C284.447 187.41 285.863 185.814 285.863 183.138C285.863 180.462 284.447 178.866 282.503 178.866C280.559 178.866 279.155 180.462 279.155 183.138C279.155 185.814 280.559 187.41 282.503 187.41ZM282.503 186.618C281.039 186.618 280.031 185.382 280.031 183.138C280.031 180.894 281.039 179.658 282.503 179.658C283.967 179.658 284.975 180.894 284.975 183.138C284.975 185.382 283.967 186.618 282.503 186.618ZM288.193 186.57L291.049 183.762C292.177 182.658 292.429 181.938 292.429 181.134C292.429 179.73 291.349 178.866 289.645 178.866C288.361 178.866 287.317 179.298 286.669 180.066L287.281 180.594C287.833 179.958 288.589 179.658 289.573 179.658C290.857 179.658 291.541 180.258 291.541 181.23C291.541 181.806 291.361 182.37 290.413 183.306L286.921 186.726V187.338H292.813V186.57H288.193ZM297.331 182.31C296.167 182.31 295.183 182.826 294.763 183.75C294.739 183.498 294.727 183.258 294.727 183.066C294.727 180.786 295.891 179.622 297.703 179.622C298.327 179.622 298.903 179.73 299.335 180.018L299.683 179.322C299.155 178.998 298.447 178.866 297.691 178.866C295.411 178.866 293.851 180.354 293.851 183.21C293.851 185.862 295.063 187.41 297.295 187.41C298.927 187.41 300.163 186.402 300.163 184.83C300.163 183.294 298.999 182.31 297.331 182.31ZM297.259 186.678C295.807 186.678 295.039 185.802 295.039 184.878C295.039 183.834 295.915 183.042 297.199 183.042C298.495 183.042 299.311 183.75 299.311 184.854C299.311 185.97 298.471 186.678 297.259 186.678ZM300.829 178.938V181.278H301.681V179.706H306.001L302.545 187.338H303.481L306.997 179.55V178.938H300.829ZM314.491 184.362H312.811V182.418H311.971V184.362H308.323L312.619 178.938H311.659L307.207 184.506V185.13H311.947V187.338H312.811V185.13H314.491V184.362Z" fill="white"/>
<line x1="237.762" y1="184.191" x2="237.762" y2="219.612" stroke="#D9014F" stroke-width="3"/>
<g filter="url(#filter0_f)">
<circle cx="238.474" cy="183.454" r="18.4482" fill="#D9014F"/>
</g>
<circle cx="238.476" cy="183.455" r="5.16549" fill="white"/>
<path d="M247.195 182.716L255.716 169.934H328.742V195.499H255.716L247.195 182.716Z" stroke="white"/>
<line x1="223.5" y1="185" x2="223.5" y2="258" stroke="#D9014F" stroke-width="3"/>
<line x1="239" y1="184.5" x2="43" y2="184.5" stroke="white" stroke-dasharray="10 10"/>
<circle cx="59.5" cy="7.5" r="2.5" fill="#D8014E"/>
<circle cx="376.5" cy="374.5" r="2.5" fill="#D8014E"/>
<circle cx="196.5" cy="203.5" r="188" stroke="#2E2E2E"/>
<path d="M108.34 120.08C109.97 120.08 111.19 118.78 111.19 116.5C111.19 114.22 109.97 112.92 108.34 112.92C106.7 112.92 105.48 114.22 105.48 116.5C105.48 118.78 106.7 120.08 108.34 120.08ZM108.34 119.19C107.24 119.19 106.48 118.29 106.48 116.5C106.48 114.71 107.24 113.81 108.34 113.81C109.43 113.81 110.19 114.71 110.19 116.5C110.19 118.29 109.43 119.19 108.34 119.19ZM112.693 120.06C113.053 120.06 113.353 119.77 113.353 119.37C113.353 118.97 113.053 118.69 112.693 118.69C112.323 118.69 112.013 118.97 112.013 119.37C112.013 119.77 112.323 120.06 112.693 120.06ZM118.676 116.33C119.316 116.03 119.666 115.51 119.666 114.82C119.666 113.65 118.646 112.92 117.126 112.92C115.616 112.92 114.606 113.65 114.606 114.82C114.606 115.51 114.946 116.03 115.586 116.33C114.796 116.63 114.356 117.22 114.356 118.02C114.356 119.29 115.426 120.08 117.126 120.08C118.836 120.08 119.916 119.29 119.916 118.02C119.916 117.22 119.476 116.64 118.676 116.33ZM117.126 113.73C118.066 113.73 118.686 114.16 118.686 114.86C118.686 115.55 118.096 115.98 117.126 115.98C116.166 115.98 115.596 115.55 115.596 114.86C115.596 114.16 116.186 113.73 117.126 113.73ZM117.126 119.27C116.016 119.27 115.356 118.78 115.356 117.99C115.356 117.22 116.016 116.74 117.126 116.74C118.236 116.74 118.916 117.22 118.916 117.99C118.916 118.78 118.236 119.27 117.126 119.27ZM123.852 115.75C122.982 115.75 122.242 116.07 121.842 116.67C121.832 116.58 121.832 116.5 121.832 116.42C121.832 114.67 122.742 113.78 124.162 113.78C124.662 113.78 125.142 113.87 125.502 114.11L125.882 113.33C125.432 113.05 124.802 112.92 124.142 112.92C122.182 112.92 120.832 114.2 120.832 116.59C120.832 118.82 121.892 120.08 123.772 120.08C125.162 120.08 126.252 119.22 126.252 117.87C126.252 116.58 125.242 115.75 123.852 115.75ZM123.732 119.27C122.652 119.27 122.072 118.64 122.072 117.92C122.072 117.15 122.732 116.56 123.682 116.56C124.662 116.56 125.282 117.09 125.282 117.91C125.282 118.74 124.642 119.27 123.732 119.27Z" fill="#5AC06A"/>
<path d="M134.354 112.646C134.158 112.451 133.842 112.451 133.646 112.646L130.464 115.828C130.269 116.024 130.269 116.34 130.464 116.536C130.66 116.731 130.976 116.731 131.172 116.536L134 113.707L136.828 116.536C137.024 116.731 137.34 116.731 137.536 116.536C137.731 116.34 137.731 116.024 137.536 115.828L134.354 112.646ZM134.5 120L134.5 113L133.5 113L133.5 120L134.5 120Z" fill="#5AC06A"/>
<rect x="-154" y="-161" width="1278" height="718" stroke="white" stroke-width="2"/>
<defs>
<filter id="filter0_f" x="205.025" y="150.006" width="66.8964" height="66.8964" filterUnits="userSpaceOnUse" color-interpolation-filters="sRGB">
<feFlood flood-opacity="0" result="BackgroundImageFix"/>
<feBlend mode="normal" in="SourceGraphic" in2="BackgroundImageFix" result="shape"/>
<feGaussianBlur stdDeviation="7.5" result="effect1_foregroundBlur"/>
</filter>
</defs>
</svg>
