<svg width="23" height="22" viewBox="0 0 23 22" fill="none" xmlns="http://www.w3.org/2000/svg">
<path d="M11.0312 20.0879H21.0647" stroke="#D8014E" stroke-width="2" stroke-linecap="round" stroke-linejoin="round"/>
<path d="M16.0502 1.69267C16.4937 1.24916 17.0953 1 17.7225 1C18.033 1 18.3406 1.06117 18.6275 1.18002C18.9144 1.29887 19.1751 1.47306 19.3947 1.69267C19.6143 1.91227 19.7885 2.17298 19.9074 2.4599C20.0262 2.74682 20.0874 3.05435 20.0874 3.36491C20.0874 3.67548 20.0262 3.983 19.9074 4.26993C19.7885 4.55685 19.6143 4.81756 19.3947 5.03716L5.45932 18.9725L1 20.0874L2.11483 15.6281L16.0502 1.69267Z" stroke="#D8014E" stroke-width="2" stroke-linecap="round" stroke-linejoin="round"/>
<circle cx="12" cy="20" r="2" fill="white"/>
</svg>
