<svg width="27" height="30" viewBox="0 0 27 30" fill="none" xmlns="http://www.w3.org/2000/svg">
<circle cx="20" cy="9" r="4" fill="white"/>
<rect x="11.2707" y="28.5477" width="8.61221" height="4.17772" transform="rotate(-120 11.2707 28.5477)" fill="black" stroke="#D8004E" stroke-width="2" stroke-linecap="round" stroke-linejoin="round"/>
<mask id="path-3-inside-1" fill="white">
<path fill-rule="evenodd" clip-rule="evenodd" d="M13.9551 1.5L16.5532 0L26.0532 16.4545L23.4557 17.9541L23.456 17.9545L11.5491 19.0525L4.5 23.1224L0 15.3281L7.05845 11.2529L13.9555 1.50069L13.9551 1.5Z"/>
</mask>
<path fill-rule="evenodd" clip-rule="evenodd" d="M13.9551 1.5L16.5532 0L26.0532 16.4545L23.4557 17.9541L23.456 17.9545L11.5491 19.0525L4.5 23.1224L0 15.3281L7.05845 11.2529L13.9555 1.50069L13.9551 1.5Z" fill="black"/>
<path d="M16.5532 0L18.2852 -1C18.02 -1.45937 17.5832 -1.79457 17.0708 -1.93185C16.5584 -2.06914 16.0125 -1.99727 15.5532 -1.73205L16.5532 0ZM13.9551 1.5L12.9551 -0.232051C12.4957 0.0331895 12.1605 0.47008 12.0232 0.982494C11.8859 1.49491 11.9579 2.04086 12.2232 2.50024L13.9551 1.5ZM26.0532 16.4545L27.0532 18.1865C27.5125 17.9213 27.8477 17.4845 27.985 16.9721C28.1223 16.4598 28.0504 15.9139 27.7852 15.4545L26.0532 16.4545ZM23.4557 17.9541L22.4557 16.222C21.996 16.4875 21.6606 16.9249 21.5235 17.4378C21.3865 17.9507 21.459 18.4971 21.7251 18.9565L23.4557 17.9541ZM23.456 17.9545L23.6396 19.946C24.319 19.8834 24.9196 19.4787 25.2328 18.8726C25.546 18.2664 25.5286 17.5425 25.1866 16.9521L23.456 17.9545ZM11.5491 19.0525L11.3655 17.061C11.0778 17.0875 10.7993 17.176 10.5491 17.3205L11.5491 19.0525ZM4.5 23.1224L2.76795 24.1224C3.32023 25.0789 4.54341 25.4067 5.5 24.8544L4.5 23.1224ZM0 15.3281L-1 13.5961C-1.45937 13.8613 -1.79457 14.2981 -1.93185 14.8105C-2.06914 15.3228 -1.99727 15.8688 -1.73205 16.3281L0 15.3281ZM7.05845 11.2529L8.05845 12.985C8.30863 12.8405 8.52455 12.6436 8.69135 12.4078L7.05845 11.2529ZM13.9555 1.50069L15.5884 2.65552C16.0392 2.01807 16.0779 1.17656 15.6874 0.500455L13.9555 1.50069ZM15.5532 -1.73205L12.9551 -0.232051L14.9551 3.23205L17.5532 1.73205L15.5532 -1.73205ZM27.7852 15.4545L18.2852 -1L14.8211 1L24.3211 17.4545L27.7852 15.4545ZM24.4557 19.6861L27.0532 18.1865L25.0532 14.7224L22.4557 16.222L24.4557 19.6861ZM21.7251 18.9565L21.7253 18.9569L25.1866 16.9521L25.1864 16.9517L21.7251 18.9565ZM23.2723 15.9629L11.3655 17.061L11.7328 21.0441L23.6396 19.946L23.2723 15.9629ZM5.5 24.8544L12.5491 20.7846L10.5491 17.3205L3.5 21.3903L5.5 24.8544ZM-1.73205 16.3281L2.76795 24.1224L6.23205 22.1224L1.73205 14.3281L-1.73205 16.3281ZM6.05845 9.52088L-1 13.5961L1 17.0602L8.05845 12.985L6.05845 9.52088ZM8.69135 12.4078L15.5884 2.65552L12.3226 0.345862L5.42555 10.0981L8.69135 12.4078ZM12.2232 2.50024L12.2236 2.50093L15.6874 0.500455L15.687 0.499763L12.2232 2.50024Z" fill="#D8004E" mask="url(#path-3-inside-1)"/>
<rect x="6.73253" y="12.1648" width="0.932385" height="7.86692" transform="rotate(-30 6.73253 12.1648)" fill="black" stroke="#D8004E" stroke-width="0.932385"/>
<rect x="13.632" y="3.49525" width="0.785121" height="15.3093" transform="rotate(-30 13.632 3.49525)" fill="black" stroke="#D8004E" stroke-width="0.785121"/>
</svg>
