<svg width="26" height="26" viewBox="0 0 26 26" fill="none" xmlns="http://www.w3.org/2000/svg">
<g clip-path="url(#clip0)">
<path fill-rule="evenodd" clip-rule="evenodd" d="M18.9037 8.20038C19.5594 8.38084 20.0764 8.90934 20.2529 9.57962C20.5808 10.8042 20.5682 13.3564 20.5682 13.3564C20.5682 13.3564 20.5682 15.8958 20.2529 17.1203C20.0764 17.7906 19.5594 18.3191 18.9037 18.4996C17.7057 18.8218 12.914 18.8218 12.914 18.8218C12.914 18.8218 8.13482 18.8218 6.92427 18.4867C6.26856 18.3062 5.75155 17.7777 5.57501 17.1075C5.25977 15.8958 5.25977 13.3435 5.25977 13.3435C5.25977 13.3435 5.25977 10.8042 5.57501 9.57962C5.75155 8.90934 6.28117 8.36795 6.92427 8.18749C8.12221 7.86523 12.914 7.86523 12.914 7.86523C12.914 7.86523 17.7057 7.86523 18.9037 8.20038ZM15.3732 13.3435L11.3885 15.6895V10.9975L15.3732 13.3435Z" fill="white"/>
</g>
<defs>
<clipPath id="clip0">
<rect width="24.4936" height="25.0379" fill="white" transform="translate(0.667969 0.824219)"/>
</clipPath>
</defs>
</svg>
