<svg width="26" height="26" viewBox="0 0 26 26" fill="none" xmlns="http://www.w3.org/2000/svg">
<g clip-path="url(#clip0)">
<path fill-rule="evenodd" clip-rule="evenodd" d="M16.2648 19.5428C17.1399 19.9256 17.468 19.1235 17.468 19.1235L19.7832 7.49293C19.7649 6.70905 18.7076 7.18302 18.7076 7.18302L5.74627 12.2691C5.74627 12.2691 5.12646 12.4879 5.18115 12.8707C5.23584 13.2535 5.72804 13.4358 5.72804 13.4358L8.99117 14.5296C8.99117 14.5296 9.97557 17.7563 10.1761 18.3761C10.3584 18.9777 10.5225 18.9959 10.5225 18.9959C10.7048 19.0688 10.8688 18.9412 10.8688 18.9412L12.9835 17.0271L16.2648 19.5428ZM16.8298 9.55291C16.8298 9.55291 17.2855 9.27947 17.2673 9.55291C17.2673 9.55291 17.3402 9.58937 17.1032 9.84459C16.8845 10.0633 11.7255 14.6937 11.0327 15.3135C10.978 15.35 10.9416 15.4047 10.9416 15.4776L10.741 17.1912C10.7046 17.3735 10.4676 17.3917 10.4129 17.2276L9.55611 14.4203C9.51965 14.3109 9.55611 14.1833 9.66549 14.1103L16.8298 9.55291Z" fill="white"/>
</g>
<defs>
<clipPath id="clip0">
<rect width="25.0379" height="25.0379" fill="white" transform="translate(0.962891 0.824219)"/>
</clipPath>
</defs>
</svg>
