<svg width="114" height="34" viewBox="0 0 114 34" fill="none" xmlns="http://www.w3.org/2000/svg">
<g clip-path="url(#clip0)">
<path d="M109.81 0H5.06482C2.75084 0 0.875 1.85382 0.875 4.14063V28.9844C0.875 31.2712 2.75084 33.125 5.06482 33.125H109.81C112.124 33.125 114 31.2712 114 28.9844V4.14063C114 1.85382 112.124 0 109.81 0Z" fill="black"/>
<path d="M109.81 0.6625C110.744 0.6625 111.639 1.02894 112.299 1.68122C112.959 2.33349 113.33 3.21817 113.33 4.14063V28.9844C113.33 29.9068 112.959 30.7915 112.299 31.4438C111.639 32.0961 110.744 32.4625 109.81 32.4625H5.06482C4.1314 32.4625 3.23622 32.0961 2.57619 31.4438C1.91617 30.7915 1.54537 29.9068 1.54537 28.9844V4.14063C1.54537 3.21817 1.91617 2.33349 2.57619 1.68122C3.23622 1.02894 4.1314 0.6625 5.06482 0.6625H109.81ZM109.81 0H5.06482C3.95361 0 2.88791 0.436243 2.10217 1.21276C1.31643 1.98928 0.875 3.04246 0.875 4.14063V28.9844C0.875 30.0825 1.31643 31.1357 2.10217 31.9122C2.88791 32.6888 3.95361 33.125 5.06482 33.125H109.81C110.921 33.125 111.987 32.6888 112.773 31.9122C113.559 31.1357 114 30.0825 114 28.9844V4.14063C114 3.04246 113.559 1.98928 112.773 1.21276C111.987 0.436243 110.921 0 109.81 0Z" fill="#A6A6A6"/>
<path d="M27.7848 15.9938C27.7616 13.4507 29.8918 12.2135 29.9892 12.1559C28.7828 10.4176 26.9129 10.1801 26.2558 10.1612C24.6853 9.99785 23.162 11.0899 22.3619 11.0899C21.546 11.0899 20.314 10.177 18.9862 10.2038C17.2776 10.2298 15.6792 11.2075 14.8025 12.7256C12.9933 15.821 14.3426 20.3698 16.076 22.8719C16.9431 24.0973 17.9563 25.4655 19.2824 25.4173C20.5799 25.3645 21.0645 24.5999 22.6302 24.5999C24.1815 24.5999 24.6366 25.4173 25.9891 25.3866C27.3816 25.3645 28.2582 24.1557 29.095 22.9192C30.097 21.5147 30.4994 20.1315 30.5154 20.0605C30.4826 20.0495 27.8111 19.0419 27.7848 15.9938Z" fill="white"/>
<path d="M25.2309 8.51546C25.9287 7.65304 26.4062 6.47973 26.2736 5.28906C25.2636 5.33325 24.0006 5.97948 23.2732 6.82296C22.6297 7.56624 22.0548 8.78452 22.2033 9.93021C23.3379 10.0139 24.5028 9.36447 25.2309 8.51546Z" fill="white"/>
<path d="M46.5601 25.2389H44.7469L43.7536 22.1545H40.3013L39.3551 25.2389H37.5898L41.0103 14.7383H43.1229L46.5601 25.2389ZM43.4542 20.8605L42.556 18.1185C42.461 17.8384 42.2829 17.1788 42.0203 16.1404H41.9883C41.8837 16.587 41.7153 17.2466 41.4837 18.1185L40.6015 20.8605H43.4542Z" fill="white"/>
<path d="M55.3547 21.3618C55.3547 22.6496 55.0026 23.6674 54.2984 24.4146C53.6677 25.0798 52.8844 25.412 51.9495 25.412C50.9403 25.412 50.2153 25.0538 49.7738 24.3373H49.7419V28.3259H48.0396V20.1617C48.0396 19.3521 48.0181 18.5213 47.9766 17.6691H49.4736L49.5686 18.8692H49.6005C50.1682 17.965 51.0297 17.5137 52.1858 17.5137C53.0896 17.5137 53.8441 17.8664 54.4477 18.5726C55.0529 19.2795 55.3547 20.209 55.3547 21.3618ZM53.6206 21.4234C53.6206 20.6864 53.4529 20.0789 53.116 19.6007C52.7479 19.102 52.2537 18.8527 51.6341 18.8527C51.2141 18.8527 50.8325 18.9915 50.4916 19.2653C50.1498 19.5415 49.9263 19.9021 49.8217 20.3487C49.769 20.557 49.7427 20.7274 49.7427 20.8616V22.1241C49.7427 22.6748 49.9135 23.1395 50.2552 23.5191C50.597 23.8986 51.0409 24.088 51.587 24.088C52.2281 24.088 52.7271 23.8434 53.084 23.3557C53.4417 22.8673 53.6206 22.2235 53.6206 21.4234Z" fill="white"/>
<path d="M64.1664 21.3618C64.1664 22.6496 63.8143 23.6674 63.1093 24.4146C62.4794 25.0798 61.6961 25.412 60.7612 25.412C59.752 25.412 59.027 25.0538 58.5863 24.3373H58.5544V28.3259H56.8521V20.1617C56.8521 19.3521 56.8306 18.5213 56.7891 17.6691H58.2861L58.3811 18.8692H58.413C58.9799 17.965 59.8414 17.5137 60.9983 17.5137C61.9013 17.5137 62.6558 17.8664 63.261 18.5726C63.8638 19.2795 64.1664 20.209 64.1664 21.3618ZM62.4323 21.4234C62.4323 20.6864 62.2638 20.0789 61.9269 19.6007C61.5588 19.102 61.0662 18.8527 60.4458 18.8527C60.025 18.8527 59.6442 18.9915 59.3025 19.2653C58.9608 19.5415 58.738 19.9021 58.6334 20.3487C58.5815 20.557 58.5544 20.7274 58.5544 20.8616V22.1241C58.5544 22.6748 58.7252 23.1395 59.0653 23.5191C59.4071 23.8978 59.851 24.088 60.3987 24.088C61.0398 24.088 61.5388 23.8434 61.8957 23.3557C62.2534 22.8673 62.4323 22.2235 62.4323 21.4234Z" fill="white"/>
<path d="M74.0195 22.2957C74.0195 23.1889 73.7057 23.9156 73.0757 24.4766C72.3835 25.0897 71.4198 25.3958 70.1815 25.3958C69.0381 25.3958 68.1216 25.178 67.4277 24.7417L67.8222 23.3396C68.5695 23.7862 69.3895 24.0103 70.2829 24.0103C70.924 24.0103 71.423 23.8667 71.7815 23.581C72.1384 23.2954 72.3164 22.9119 72.3164 22.4338C72.3164 22.0077 72.1695 21.6487 71.8749 21.3575C71.5819 21.0663 71.0925 20.7957 70.409 20.5456C68.5487 19.8599 67.6194 18.8554 67.6194 17.5346C67.6194 16.6714 67.9451 15.9636 68.5974 15.4129C69.2473 14.8613 70.1144 14.5859 71.1987 14.5859C72.1655 14.5859 72.9688 14.7524 73.6099 15.0846L73.1843 16.456C72.5855 16.134 71.9085 15.9731 71.1508 15.9731C70.5519 15.9731 70.0841 16.119 69.7487 16.4094C69.4653 16.669 69.3232 16.9854 69.3232 17.3602C69.3232 17.7752 69.4853 18.1185 69.811 18.3883C70.0945 18.6377 70.6094 18.9075 71.3568 19.1987C72.2709 19.5624 72.9424 19.9877 73.3744 20.4754C73.8047 20.9614 74.0195 21.5698 74.0195 22.2957Z" fill="white"/>
<path d="M79.6484 18.9303H77.7721V22.6065C77.7721 23.5415 78.1026 24.0086 78.7653 24.0086C79.0695 24.0086 79.3218 23.9826 79.5214 23.9305L79.5685 25.2079C79.2332 25.3318 78.7917 25.3942 78.2447 25.3942C77.5725 25.3942 77.0471 25.1914 76.6679 24.7866C76.2902 24.381 76.1002 23.7009 76.1002 22.7453V18.9287H74.9824V17.6663H76.1002V16.2799L77.7721 15.7812V17.6663H79.6484V18.9303Z" fill="white"/>
<path d="M88.1156 21.3938C88.1156 22.5576 87.7787 23.5131 87.1064 24.2604C86.4014 25.0297 85.4657 25.4132 84.2992 25.4132C83.175 25.4132 82.28 25.0447 81.6125 24.3077C80.9451 23.5707 80.6113 22.6405 80.6113 21.5192C80.6113 20.3459 80.9546 19.3849 81.6437 18.6376C82.3311 17.8896 83.2589 17.5156 84.4254 17.5156C85.5495 17.5156 86.4541 17.8841 87.1368 18.6219C87.7899 19.3375 88.1156 20.2615 88.1156 21.3938ZM86.3495 21.4482C86.3495 20.7499 86.1986 20.151 85.8928 19.6516C85.536 19.0472 85.0258 18.7457 84.3647 18.7457C83.6804 18.7457 83.1607 19.0479 82.8038 19.6516C82.498 20.1518 82.3471 20.7602 82.3471 21.4798C82.3471 22.1781 82.498 22.777 82.8038 23.2756C83.1718 23.88 83.686 24.1815 84.3495 24.1815C84.9994 24.1815 85.5096 23.8737 85.8777 23.2599C86.1915 22.7509 86.3495 22.1457 86.3495 21.4482Z" fill="white"/>
<path d="M93.6479 19.1486C93.4794 19.1178 93.2998 19.102 93.1114 19.102C92.5126 19.102 92.0495 19.3253 91.7237 19.7727C91.4403 20.1672 91.2982 20.6659 91.2982 21.2679V25.2408H89.5967L89.6127 20.0536C89.6127 19.1809 89.5911 18.3864 89.5488 17.6699H91.0315L91.0938 19.1186H91.1409C91.3205 18.6207 91.604 18.2199 91.992 17.9192C92.3712 17.6486 92.7808 17.5137 93.2223 17.5137C93.3796 17.5137 93.5218 17.5247 93.6479 17.5444V19.1486Z" fill="white"/>
<path d="M101.26 21.0972C101.26 21.3987 101.24 21.6527 101.198 21.8603H96.0911C96.1111 22.6083 96.3578 23.1803 96.832 23.5748C97.2624 23.9275 97.8189 24.1043 98.5023 24.1043C99.2584 24.1043 99.9483 23.9851 100.569 23.7461L100.835 24.9138C100.11 25.2263 99.2544 25.3818 98.2668 25.3818C97.0788 25.3818 96.1462 25.0361 95.4676 24.3457C94.7905 23.6553 94.4512 22.7282 94.4512 21.5651C94.4512 20.4234 94.7665 19.4726 95.3981 18.7143C96.0592 17.9048 96.9526 17.5 98.0768 17.5C99.181 17.5 100.017 17.9048 100.585 18.7143C101.034 19.3574 101.26 20.1528 101.26 21.0972ZM99.6369 20.6609C99.6481 20.1622 99.5371 19.7314 99.3063 19.3677C99.0117 18.8998 98.559 18.6662 97.9498 18.6662C97.3933 18.6662 96.9406 18.8942 96.5949 19.3519C96.3115 19.7156 96.143 20.152 96.0911 20.6601H99.6369V20.6609Z" fill="white"/>
<path d="M43.693 12.1744H42.8076V10.8691H39.2695V12.1744H38.3694L38.3398 10.1326H38.7715C38.9855 9.92844 39.1564 9.6319 39.2843 9.24299C39.4122 8.85166 39.4946 8.40928 39.5315 7.91585L39.6717 5.56055H43.0585V10.1326H43.741L43.693 12.1744ZM39.8266 10.1326H42.1288V6.30433H40.5608L40.4723 7.79918C40.4059 8.79818 40.1906 9.57599 39.8266 10.1326Z" fill="white"/>
<path d="M44.5652 8.86016C44.5652 8.47369 44.6426 8.1261 44.7976 7.81741C44.9525 7.50629 45.1702 7.26808 45.4506 7.1028C45.731 6.93508 46.0532 6.85123 46.4172 6.85123C46.9558 6.85123 47.3924 7.02259 47.7269 7.36531C48.0639 7.70803 48.2459 8.16256 48.2729 8.72891L48.2766 8.93673C48.2766 9.32563 48.2004 9.67322 48.0479 9.97948C47.8978 10.2857 47.6814 10.5227 47.3985 10.6904C47.1182 10.8582 46.7935 10.942 46.4246 10.942C45.8613 10.942 45.41 10.7573 45.0706 10.3878C44.7336 10.0159 44.5652 9.5213 44.5652 8.90391V8.86016ZM45.4617 8.93673C45.4617 9.34265 45.5465 9.66106 45.7162 9.89198C45.8859 10.1205 46.122 10.2347 46.4246 10.2347C46.7271 10.2347 46.962 10.118 47.1292 9.88469C47.2989 9.65134 47.3838 9.30983 47.3838 8.86016C47.3838 8.46154 47.2965 8.14555 47.1218 7.91221C46.9497 7.67886 46.7148 7.56219 46.4172 7.56219C46.1245 7.56219 45.8921 7.67765 45.7199 7.90856C45.5477 8.13704 45.4617 8.47977 45.4617 8.93673Z" fill="white"/>
<path d="M51.0524 10.2347C51.2762 10.2347 51.4619 10.1703 51.6095 10.0415C51.7571 9.91264 51.8358 9.75343 51.8456 9.56384H52.6905C52.6806 9.80933 52.6032 10.039 52.4581 10.2529C52.3129 10.4644 52.1162 10.6321 51.8678 10.7561C51.6194 10.88 51.3513 10.942 51.0635 10.942C50.5052 10.942 50.0625 10.7634 49.7353 10.4061C49.4082 10.0488 49.2447 9.55533 49.2447 8.92579V8.83464C49.2447 8.23427 49.407 7.75421 49.7317 7.39448C50.0563 7.03231 50.499 6.85123 51.0598 6.85123C51.5345 6.85123 51.9206 6.98856 52.2182 7.26322C52.5183 7.53546 52.6757 7.89398 52.6905 8.33879H51.8456C51.8358 8.11274 51.7571 7.92679 51.6095 7.78095C51.4644 7.63511 51.2787 7.56219 51.0524 7.56219C50.7622 7.56219 50.5384 7.66671 50.381 7.87575C50.2236 8.08235 50.1436 8.39712 50.1412 8.82006V8.96225C50.1412 9.39005 50.2186 9.70968 50.3736 9.92114C50.531 10.1302 50.7573 10.2347 51.0524 10.2347Z" fill="white"/>
<path d="M56.8867 7.62782H55.5917V10.8691H54.6952V7.62782H53.4151V6.92415H56.8867V7.62782Z" fill="white"/>
<path d="M59.3047 9.6003L60.1163 6.92415H61.0718L59.4854 11.467C59.2419 12.1306 58.8287 12.4624 58.2458 12.4624C58.1155 12.4624 57.9716 12.4405 57.8142 12.3968V11.7113L57.9839 11.7223C58.2102 11.7223 58.3799 11.6809 58.493 11.5983C58.6086 11.5181 58.6996 11.382 58.766 11.1899L58.8951 10.8509L57.4932 6.92415H58.4598L59.3047 9.6003Z" fill="white"/>
<path d="M65.3529 10.8691H64.4564V7.63876H62.8995V10.8691H62.003V6.92415H65.3529V10.8691Z" fill="white"/>
<path d="M70.0656 10.8691H69.1691V9.27581H67.6159V10.8691H66.7194V6.92415H67.6159V8.56848H69.1691V6.92415H70.0656V10.8691Z" fill="white"/>
<path d="M71.2329 8.86016C71.2329 8.47369 71.3104 8.1261 71.4653 7.81741C71.6203 7.50629 71.8379 7.26808 72.1183 7.1028C72.3987 6.93508 72.7209 6.85123 73.0849 6.85123C73.6236 6.85123 74.0601 7.02259 74.3946 7.36531C74.7316 7.70803 74.9136 8.16256 74.9406 8.72891L74.9443 8.93673C74.9443 9.32563 74.8681 9.67322 74.7156 9.97948C74.5656 10.2857 74.3491 10.5227 74.0663 10.6904C73.7859 10.8582 73.4612 10.942 73.0923 10.942C72.5291 10.942 72.0777 10.7573 71.7383 10.3878C71.4014 10.0159 71.2329 9.5213 71.2329 8.90391V8.86016ZM72.1294 8.93673C72.1294 9.34265 72.2142 9.66106 72.3839 9.89198C72.5537 10.1205 72.7898 10.2347 73.0923 10.2347C73.3948 10.2347 73.6297 10.118 73.797 9.88469C73.9667 9.65134 74.0515 9.30983 74.0515 8.86016C74.0515 8.46154 73.9642 8.14555 73.7896 7.91221C73.6174 7.67886 73.3825 7.56219 73.0849 7.56219C72.7922 7.56219 72.5598 7.67765 72.3876 7.90856C72.2155 8.13704 72.1294 8.47977 72.1294 8.93673Z" fill="white"/>
<path d="M78.4078 10.8691V6.92415H80.0274C80.5735 6.92415 80.9891 7.01894 81.2744 7.20853C81.5597 7.39569 81.7024 7.6655 81.7024 8.01794C81.7024 8.20024 81.6446 8.36431 81.529 8.51015C81.4158 8.65356 81.2474 8.76415 81.0236 8.84193C81.2843 8.89541 81.4909 9.00357 81.6434 9.16643C81.7958 9.32928 81.8721 9.5213 81.8721 9.74249C81.8721 10.1095 81.7344 10.389 81.4589 10.5811C81.1859 10.7731 80.7924 10.8691 80.2783 10.8691H78.4078ZM79.3043 9.1883V10.1691H80.2857C80.7456 10.1691 80.9756 10.0062 80.9756 9.68051C80.9756 9.35237 80.7419 9.1883 80.2746 9.1883H79.3043ZM79.3043 8.5539H80.0422C80.5513 8.5539 80.8059 8.40563 80.8059 8.10909C80.8059 7.79797 80.5648 7.63754 80.0828 7.62782H79.3043V8.5539Z" fill="white"/>
</g>
<defs>
<clipPath id="clip0">
<rect width="113.125" height="33.125" fill="white" transform="translate(0.875)"/>
</clipPath>
</defs>
</svg>
