<svg width="26" height="26" viewBox="0 0 26 26" fill="none" xmlns="http://www.w3.org/2000/svg">
<g clip-path="url(#clip0)">
<path d="M9.91196 13.3439C9.91196 11.9035 11.0793 10.7356 12.5197 10.7356C13.96 10.7356 15.128 11.9035 15.128 13.3439C15.128 14.7842 13.96 15.9522 12.5197 15.9522C11.0793 15.9522 9.91196 14.7842 9.91196 13.3439ZM8.50195 13.3439C8.50195 15.5629 10.3007 17.3616 12.5197 17.3616C14.7386 17.3616 16.5374 15.5629 16.5374 13.3439C16.5374 11.1249 14.7386 9.32617 12.5197 9.32617C10.3007 9.32617 8.50195 11.1249 8.50195 13.3439ZM15.7575 9.16686C15.7574 9.35257 15.8124 9.53412 15.9155 9.68856C16.0186 9.84301 16.1652 9.96341 16.3368 10.0345C16.5083 10.1057 16.6971 10.1243 16.8792 10.0882C17.0614 10.052 17.2287 9.96268 17.3601 9.83142C17.4914 9.70016 17.5809 9.5329 17.6172 9.35078C17.6535 9.16866 17.635 8.97987 17.564 8.80828C17.493 8.63668 17.3727 8.49 17.2184 8.38676C17.064 8.28353 16.8825 8.22839 16.6968 8.22832H16.6964C16.4475 8.22843 16.2088 8.32734 16.0328 8.50332C15.8567 8.67929 15.7577 8.91795 15.7575 9.16686ZM9.35862 19.7127C8.59578 19.678 8.18115 19.5509 7.90561 19.4435C7.54031 19.3013 7.27966 19.1319 7.00562 18.8583C6.73158 18.5846 6.56195 18.3242 6.42036 17.9589C6.31295 17.6835 6.18588 17.2688 6.1512 16.5059C6.11327 15.6812 6.1057 15.4334 6.1057 13.3439C6.1057 11.2545 6.1139 11.0074 6.1512 10.182C6.18594 9.41912 6.31395 9.00518 6.42036 8.72895C6.56258 8.36365 6.73196 8.103 7.00562 7.82896C7.27929 7.55492 7.53968 7.38529 7.90561 7.2437C8.18103 7.13629 8.59578 7.00922 9.35862 6.97455C10.1834 6.93661 10.4311 6.92904 12.5197 6.92904C14.6082 6.92904 14.8562 6.93724 15.6816 6.97455C16.4445 7.00929 16.8584 7.13729 17.1346 7.2437C17.4999 7.38529 17.7606 7.5553 18.0346 7.82896C18.3087 8.10263 18.4777 8.36365 18.6199 8.72895C18.7273 9.00437 18.8544 9.41912 18.889 10.182C18.927 11.0074 18.9346 11.2545 18.9346 13.3439C18.9346 15.4334 18.927 15.6805 18.889 16.5059C18.8543 17.2688 18.7266 17.6834 18.6199 17.9589C18.4777 18.3242 18.3083 18.5849 18.0346 18.8583C17.761 19.1317 17.4999 19.3013 17.1346 19.4435C16.8592 19.551 16.4445 19.678 15.6816 19.7127C14.8569 19.7506 14.6091 19.7582 12.5197 19.7582C10.4302 19.7582 10.1831 19.7506 9.35862 19.7127ZM9.29384 5.56692C8.46089 5.60485 7.89171 5.73692 7.39465 5.93034C6.87987 6.13008 6.44408 6.39805 6.00861 6.83283C5.57314 7.26761 5.30586 7.70409 5.10612 8.21887C4.9127 8.71624 4.78063 9.28511 4.7427 10.1181C4.70414 10.9523 4.69531 11.219 4.69531 13.3439C4.69531 15.4687 4.70414 15.7354 4.7427 16.5697C4.78063 17.4027 4.9127 17.9715 5.10612 18.4689C5.30586 18.9833 5.5732 19.4203 6.00861 19.8549C6.44402 20.2895 6.87987 20.5571 7.39465 20.7574C7.89265 20.9508 8.46089 21.0829 9.29384 21.1208C10.1285 21.1588 10.3948 21.1682 12.5197 21.1682C14.6445 21.1682 14.9112 21.1594 15.7455 21.1208C16.5785 21.0829 17.1473 20.9508 17.6447 20.7574C18.1591 20.5571 18.5952 20.2897 19.0307 19.8549C19.4662 19.4201 19.7329 18.9833 19.9332 18.4689C20.1266 17.9715 20.2593 17.4026 20.2966 16.5697C20.3345 15.7348 20.3434 15.4687 20.3434 13.3439C20.3434 11.219 20.3345 10.9523 20.2966 10.1181C20.2587 9.28504 20.1266 8.71593 19.9332 8.21887C19.7329 7.7044 19.4655 7.2683 19.0307 6.83283C18.5959 6.39736 18.1591 6.13008 17.6453 5.93034C17.1473 5.73692 16.5784 5.60422 15.7461 5.56692C14.9118 5.52898 14.6451 5.51953 12.5203 5.51953C10.3954 5.51953 10.1285 5.52836 9.29384 5.56692Z" fill="white"/>
</g>
<defs>
<clipPath id="clip0">
<rect width="25.0379" height="25.0379" fill="white" transform="translate(0 0.824219)"/>
</clipPath>
</defs>
</svg>
