<svg width="43" height="21" viewBox="0 0 43 21" fill="none" xmlns="http://www.w3.org/2000/svg">
<rect width="43" height="21" fill="#E5E5E5"/>
<rect x="-694" y="-244" width="1278" height="718" fill="black"/>
<path d="M0.215731 16.8535C0.0204697 17.0487 0.0204697 17.3653 0.215731 17.5606L3.39771 20.7426C3.59297 20.9378 3.90956 20.9378 4.10482 20.7426C4.30008 20.5473 4.30008 20.2307 4.10482 20.0355L1.27639 17.207L4.10482 14.3786C4.30008 14.1833 4.30008 13.8668 4.10482 13.6715C3.90956 13.4762 3.59297 13.4762 3.39771 13.6715L0.215731 16.8535ZM18.7187 16.707L0.569284 16.707L0.569284 17.707L18.7188 17.707L18.7187 16.707Z" fill="white"/>
<path d="M42.6666 4.85551C42.8619 4.66024 42.8619 4.34366 42.6666 4.1484L39.4846 0.966419C39.2893 0.771157 38.9728 0.771157 38.7775 0.966419C38.5822 1.16168 38.5822 1.47826 38.7775 1.67353L41.6059 4.50195L38.7775 7.33038C38.5822 7.52564 38.5822 7.84222 38.7775 8.03749C38.9728 8.23275 39.2893 8.23275 39.4846 8.03749L42.6666 4.85551ZM25.9785 5.00195L42.313 5.00195V4.00195L25.9785 4.00195V5.00195Z" fill="white"/>
<circle cx="21.8952" cy="10.3998" r="7.21352" transform="rotate(-90 21.8952 10.3998)" stroke="white"/>
<rect x="-694" y="-244" width="1278" height="718" stroke="white" stroke-width="2"/>
</svg>
