<svg width="47" height="15" viewBox="0 0 47 15" fill="none" xmlns="http://www.w3.org/2000/svg">
<rect width="47" height="15" fill="#E5E5E5"/>
<rect x="-477" y="-391" width="1278" height="718" fill="black"/>
<path d="M42.0733 13.941C42.2685 14.1363 42.5851 14.1363 42.7804 13.941L45.9624 10.759C46.1576 10.5637 46.1576 10.2472 45.9624 10.0519C45.7671 9.85664 45.4505 9.85664 45.2553 10.0519L42.4268 12.8803L39.5984 10.0519C39.4031 9.85664 39.0866 9.85664 38.8913 10.0519C38.696 10.2472 38.696 10.5637 38.8913 10.759L42.0733 13.941ZM17.5176 13.5874C17.5176 6.84701 22.9818 1.38281 29.7222 1.38281V0.382812C22.4295 0.382812 16.5176 6.29472 16.5176 13.5874H17.5176ZM29.7222 1.38281C36.4626 1.38281 41.9268 6.84701 41.9268 13.5874H42.9268C42.9268 6.29472 37.0149 0.382812 29.7222 0.382812V1.38281Z" fill="white"/>
<path d="M4.66695 0.529711C4.47169 0.334449 4.15511 0.334449 3.95985 0.529711L0.777867 3.71169C0.582605 3.90695 0.582605 4.22354 0.777867 4.4188C0.973129 4.61406 1.28971 4.61406 1.48497 4.4188L4.3134 1.59037L7.14183 4.4188C7.33709 4.61406 7.65367 4.61406 7.84893 4.4188C8.0442 4.22354 8.0442 3.90695 7.84894 3.71169L4.66695 0.529711ZM29.2227 0.883266C29.2227 7.62369 23.7585 13.0879 17.018 13.0879L17.018 14.0879C24.3107 14.0879 30.2227 8.17598 30.2227 0.883266L29.2227 0.883266ZM17.018 13.0879C10.2776 13.0879 4.8134 7.62369 4.8134 0.883264L3.8134 0.883264C3.8134 8.17598 9.72531 14.0879 17.018 14.0879L17.018 13.0879Z" fill="white"/>
<rect x="-477" y="-391" width="1278" height="718" stroke="white" stroke-width="2"/>
</svg>
