<svg width="31" height="30" viewBox="0 0 31 30" fill="none" xmlns="http://www.w3.org/2000/svg">
<rect width="31" height="30" fill="#E5E5E5"/>
<rect x="-946" y="-390" width="1278" height="718" fill="black"/>
<path d="M29.7118 14.5879C29.7118 22.3256 23.3687 28.6075 15.5327 28.6075C7.69657 28.6075 1.35352 22.3256 1.35352 14.5879C1.35352 6.85027 7.69657 0.568359 15.5327 0.568359C23.3687 0.568359 29.7118 6.85027 29.7118 14.5879Z" stroke="white"/>
<path d="M27.8135 7.57656C28.095 8.05883 28.1318 8.72031 27.8438 9.57465C27.5561 10.4281 26.9616 11.4144 26.0826 12.4713C24.3271 14.5819 21.5079 16.8889 18.0354 18.8719C14.563 20.8549 11.1335 22.1164 8.40782 22.5649C7.04299 22.7894 5.88213 22.8055 4.9911 22.6252C4.09909 22.4448 3.53834 22.0825 3.25684 21.6002C2.97534 21.118 2.93855 20.4565 3.22654 19.6021C3.51422 18.7487 4.10873 17.7624 4.98775 16.7055C6.74322 14.5949 9.56246 12.2879 13.0349 10.3048C16.5073 8.32184 19.9368 7.06038 22.6625 6.61192C24.0273 6.38737 25.1882 6.37129 26.0792 6.55156C26.9712 6.73204 27.532 7.09429 27.8135 7.57656Z" stroke="white"/>
<path d="M19.5649 18.3462C19.6361 18.0807 19.4765 17.8073 19.2085 17.7355L14.8413 16.5654C14.5733 16.4936 14.2984 16.6506 14.2272 16.916C14.1561 17.1815 14.3157 17.4549 14.5837 17.5267L18.4657 18.5668L17.4353 22.4122C17.3642 22.6777 17.5238 22.9511 17.7918 23.0229C18.0598 23.0947 18.3347 22.9377 18.4058 22.6723L19.5649 18.3462ZM18.5372 19.1017L19.3317 18.648L18.8276 17.7844L18.0331 18.2381L18.5372 19.1017Z" fill="white"/>
<rect x="-946" y="-390" width="1278" height="718" stroke="white" stroke-width="2"/>
</svg>
