<svg width="32" height="25" viewBox="0 0 32 25" fill="none" xmlns="http://www.w3.org/2000/svg">
<rect width="32" height="25" fill="#E5E5E5"/>
<rect x="-248" y="-240" width="1278" height="718" fill="black"/>
<rect x="0.5" y="0.833984" width="30.7616" height="23.5018" rx="0.5" stroke="white"/>
<mask id="path-3-inside-1" fill="white">
<path d="M16.334 12.5861C16.334 9.32838 18.9749 6.6875 22.2326 6.6875H30.7968C31.3293 6.6875 31.761 7.11918 31.761 7.65169V17.5205C31.761 18.053 31.3293 18.4847 30.7968 18.4847H22.2326C18.9749 18.4847 16.334 15.8438 16.334 12.5861Z"/>
</mask>
<path d="M16.334 12.5861C16.334 9.32838 18.9749 6.6875 22.2326 6.6875H30.7968C31.3293 6.6875 31.761 7.11918 31.761 7.65169V17.5205C31.761 18.053 31.3293 18.4847 30.7968 18.4847H22.2326C18.9749 18.4847 16.334 15.8438 16.334 12.5861Z" stroke="white" stroke-width="2" mask="url(#path-3-inside-1)"/>
<rect x="-248" y="-240" width="1278" height="718" stroke="white" stroke-width="2"/>
</svg>
