<svg width="41" height="27" viewBox="0 0 41 27" fill="none" xmlns="http://www.w3.org/2000/svg">
<rect width="41" height="27" fill="#E5E5E5"/>
<rect x="-692" y="-391" width="1278" height="718" fill="black"/>
<path d="M14.9191 13.2343C14.7239 13.4296 14.7239 13.7462 14.9191 13.9414L18.1011 17.1234C18.2964 17.3187 18.6129 17.3187 18.8082 17.1234C19.0035 16.9282 19.0035 16.6116 18.8082 16.4163L15.9798 13.5879L18.8082 10.7595C19.0035 10.5642 19.0035 10.2476 18.8082 10.0524C18.6129 9.85709 18.2964 9.85709 18.1011 10.0524L14.9191 13.2343ZM28.8848 13.0879L15.2727 13.0879L15.2727 14.0879L28.8848 14.0879L28.8848 13.0879Z" fill="white"/>
<circle cx="34.3308" cy="13.5867" r="5.85231" stroke="white"/>
<path d="M0.753906 26.2921C7.77048 26.2921 13.4585 20.604 13.4585 13.5874C13.4585 6.57087 7.77048 0.882812 0.753906 0.882812" stroke="white"/>
<rect x="-692" y="-391" width="1278" height="718" stroke="white" stroke-width="2"/>
</svg>
