<svg width="42" height="26" viewBox="0 0 42 26" fill="none" xmlns="http://www.w3.org/2000/svg">
<rect width="42" height="26" fill="#E5E5E5"/>
<rect x="-473" y="-237" width="1278" height="718" fill="black"/>
<path d="M33.7955 13.0567C33.9908 12.8614 33.9908 12.5448 33.7955 12.3496L30.6135 9.16759C30.4183 8.97233 30.1017 8.97233 29.9064 9.16759C29.7111 9.36285 29.7111 9.67944 29.9064 9.8747L32.7348 12.7031L29.9064 15.5316C29.7111 15.7268 29.7111 16.0434 29.9064 16.2387C30.1017 16.4339 30.4183 16.4339 30.6135 16.2387L33.7955 13.0567ZM17.1074 13.2031L33.4419 13.2031L33.4419 12.2031L17.1074 12.2031L17.1074 13.2031Z" fill="white"/>
<path d="M0.649331 12.2159C0.452489 12.4095 0.449917 12.7261 0.643587 12.9229L3.79961 16.1307C3.99328 16.3275 4.30985 16.3301 4.5067 16.1364C4.70354 15.9427 4.70611 15.6262 4.51244 15.4293L1.70708 12.578L4.5584 9.77265C4.75524 9.57898 4.75781 9.26241 4.56414 9.06557C4.37047 8.86873 4.0539 8.86616 3.85706 9.05983L0.649331 12.2159ZM17.1115 12.2031L1.00406 12.0723L0.995939 13.0722L17.1034 13.2031L17.1115 12.2031Z" fill="white"/>
<circle cx="28.9058" cy="12.7046" r="12.2046" stroke="white"/>
<rect x="-473" y="-237" width="1278" height="718" stroke="white" stroke-width="2"/>
</svg>
