<svg width="10" height="10" viewBox="0 0 10 10" fill="none" xmlns="http://www.w3.org/2000/svg">
<path d="M1.43412 0.751931C1.29712 0.512172 0.991689 0.428873 0.751931 0.565878C0.512172 0.702883 0.428873 1.00831 0.565878 1.24807L1.43412 0.751931ZM5 8L4.56588 8.24807L5 9.00778L5.43412 8.24807L5 8ZM9.43412 1.24807C9.57113 1.00831 9.48783 0.702883 9.24807 0.565878C9.00831 0.428873 8.70288 0.512172 8.56588 0.751931L9.43412 1.24807ZM0.565878 1.24807L4.56588 8.24807L5.43412 7.75193L1.43412 0.751931L0.565878 1.24807ZM5.43412 8.24807L9.43412 1.24807L8.56588 0.751931L4.56588 7.75193L5.43412 8.24807Z" fill="#999999"/>
</svg>
